<svg xmlns="http://www.w3.org/2000/svg" viewBox="0 0 200 27.123">
  <defs>
    <style>
      .cls-1, .cls-2 {
        fill: #fff;
      }

      .cls-1 {
        fill-rule: evenodd;
      }
    </style>
  </defs>
  <g id="logotipo-lendo-cast-branco-vazado" transform="translate(-165 -448)">
    <g id="lendocast" transform="translate(165 448)">
      <path id="LendoCast-2" data-name="LendoCast" class="cls-1" d="M212.51,30.53a.663.663,0,0,1-.749-.751V8.652a.749.749,0,1,1,1.5,0V29.028h11.163a.751.751,0,0,1,0,1.5Zm14.035-7.686v1.466a5.05,5.05,0,0,0,1.07,3.664,5.149,5.149,0,0,0,3.673,1.055h2.924a6.932,6.932,0,0,0,3.495-.661,2.763,2.763,0,0,0,1.213-2.27.721.721,0,0,1,.785-.751.711.711,0,0,1,.553.214.7.7,0,0,1,.16.572,4.214,4.214,0,0,1-1.694,3.342,7.914,7.914,0,0,1-4.511,1.055h-2.924q-3.245,0-4.743-1.484t-1.5-4.737v-4q0-3.289,1.5-4.79t4.743-1.466h2.924q3.281,0,4.761,1.484t1.48,4.772v1.787a.663.663,0,0,1-.749.751Zm0-1.5h12.411V20.306a5.17,5.17,0,0,0-1.052-3.7,5.141,5.141,0,0,0-3.691-1.055h-2.924a4.989,4.989,0,0,0-3.673,1.037,5.18,5.18,0,0,0-1.07,3.718Zm25.091-7.293q3.281,0,4.761,1.484t1.48,4.772v9.473a.749.749,0,1,1-1.5,0V20.306a5.169,5.169,0,0,0-1.052-3.7,5.14,5.14,0,0,0-3.691-1.055h-1q-5.813,0-6.277,3.9l-.036.214V29.779a.749.749,0,1,1-1.5,0V14.8a.749.749,0,1,1,1.5,0v2.073q1.64-2.824,6.312-2.824Zm22.951-8.186a.663.663,0,0,1,.749.751V29.779a.749.749,0,1,1-1.5,0V27.813a4.665,4.665,0,0,1-2.3,2.038,10.09,10.09,0,0,1-4.012.679h-1.355q-3.245,0-4.743-1.5t-1.5-4.754V20.306q0-3.289,1.5-4.772t4.743-1.484h7.668V6.614A.663.663,0,0,1,274.587,5.864Zm-7.061,23.165a9.172,9.172,0,0,0,4.654-.983,3.181,3.181,0,0,0,1.658-2.913v-9.58h-7.668a5.149,5.149,0,0,0-3.673,1.055,5.111,5.111,0,0,0-1.07,3.7v3.968a5.119,5.119,0,0,0,1.07,3.682,5.091,5.091,0,0,0,3.673,1.072Zm16.1,1.5q-3.245,0-4.743-1.484t-1.5-4.737v-4q0-3.289,1.5-4.79t4.743-1.466h2.924q3.281,0,4.761,1.484t1.48,4.772v3.968q0,3.253-1.48,4.754t-4.761,1.5Zm2.924-1.5a5.082,5.082,0,0,0,3.691-1.072,5.178,5.178,0,0,0,1.052-3.682V20.306a5.169,5.169,0,0,0-1.052-3.7,5.14,5.14,0,0,0-3.691-1.055H283.63a4.989,4.989,0,0,0-3.673,1.037,5.18,5.18,0,0,0-1.07,3.718v4a5.05,5.05,0,0,0,1.07,3.664,5.149,5.149,0,0,0,3.673,1.055Zm20.76,1.5q-4.1,0-6.045-1.948t-1.944-6.059V14.3q0-4.111,1.944-6.077t6.009-1.93h4.315a8.112,8.112,0,0,1,5.118,1.394,6,6,0,0,1,2.051,4.361,1.279,1.279,0,0,1-.285,1.144,1.544,1.544,0,0,1-1.141.393,1.471,1.471,0,0,1-1.088-.375,1.938,1.938,0,0,1-.481-1.126,2.8,2.8,0,0,0-1.106-2.2,5.962,5.962,0,0,0-3.067-.59h-4.315a7.382,7.382,0,0,0-3,.429,2.784,2.784,0,0,0-1.516,1.537,8.19,8.19,0,0,0-.446,3.039v8.222a7.76,7.76,0,0,0,.464,3.021,2.868,2.868,0,0,0,1.516,1.519,7.709,7.709,0,0,0,3.014.465h4.28a5.962,5.962,0,0,0,3.067-.59,2.8,2.8,0,0,0,1.106-2.2,1.938,1.938,0,0,1,.481-1.126,1.471,1.471,0,0,1,1.088-.375,1.544,1.544,0,0,1,1.141.393,1.279,1.279,0,0,1,.285,1.144,6,6,0,0,1-2.051,4.361,8.112,8.112,0,0,1-5.118,1.394Zm22.06-18.124q3.566,0,5.278,1.716t1.712,5.291v9.616a1.5,1.5,0,1,1-3,0v-.822A6.751,6.751,0,0,1,327.8,30.53h-2a6.056,6.056,0,0,1-4.458-1.466,6.088,6.088,0,0,1-1.462-4.468,6.136,6.136,0,0,1,1.444-4.468,6.046,6.046,0,0,1,4.476-1.466h7.525a3.428,3.428,0,0,0-.963-2.556,4.852,4.852,0,0,0-3-.7H327.3a10.4,10.4,0,0,0-2.657.25,1.974,1.974,0,0,0-1.23.858,2.676,2.676,0,0,1-.678,1.037,1.558,1.558,0,0,1-1,.286,1.654,1.654,0,0,1-1.052-.322,1.035,1.035,0,0,1-.41-.858,1.507,1.507,0,0,1,.036-.357,4.572,4.572,0,0,1,2.229-2.949,9.856,9.856,0,0,1,4.761-.947Zm3.816,12.655q.036-.107.071-.232a1.576,1.576,0,0,1,.107-.268v-2.9h-7.561a5.021,5.021,0,0,0-1.819.25,1.517,1.517,0,0,0-.856.858,5.055,5.055,0,0,0-.25,1.823,5.055,5.055,0,0,0,.25,1.823,1.517,1.517,0,0,0,.856.858,5.021,5.021,0,0,0,1.819.25h2Q332.333,27.527,333.189,25.06Zm10.79,5.469q-4.529,0-5.278-3.754a1.087,1.087,0,0,1-.036-.322,1.162,1.162,0,0,1,.41-.947,1.651,1.651,0,0,1,1.088-.34,1.443,1.443,0,0,1,1.034.34,2.421,2.421,0,0,1,.571,1.126,1.182,1.182,0,0,0,.7.715,4.7,4.7,0,0,0,1.516.179h5.849a2.756,2.756,0,0,0,1.872-.465,2.69,2.69,0,0,0,.481-1.895,2.69,2.69,0,0,0-.481-1.895,2.756,2.756,0,0,0-1.872-.465h-5.742q-5.171,0-5.171-5.183a5.359,5.359,0,0,1,1.284-3.932,5.277,5.277,0,0,1,3.887-1.287h5.563q4.208,0,4.957,3.539a1.087,1.087,0,0,1,.036.322,1.123,1.123,0,0,1-.41.912,1.651,1.651,0,0,1-1.088.34,1.378,1.378,0,0,1-1.016-.34,2.492,2.492,0,0,1-.553-1.055,1.083,1.083,0,0,0-.642-.572,4.318,4.318,0,0,0-1.284-.143h-5.563a4.514,4.514,0,0,0-1.391.161.963.963,0,0,0-.624.626,4.7,4.7,0,0,0-.16,1.43,2.565,2.565,0,0,0,.428,1.734,2.469,2.469,0,0,0,1.747.447h5.742q5.35,0,5.349,5.362t-5.349,5.362Zm21.489-3a1.325,1.325,0,0,1,1.5,1.5,1.366,1.366,0,0,1-1.5,1.5q-3.531,0-5.207-1.68t-1.676-5.183V15.408h-1.748a1.366,1.366,0,0,1-1.5-1.5,1.325,1.325,0,0,1,1.5-1.5h1.748V9.8a1.5,1.5,0,1,1,3,0v2.61h4.1a1.325,1.325,0,0,1,1.5,1.5,1.366,1.366,0,0,1-1.5,1.5h-4.1v8.258a6.14,6.14,0,0,0,.357,2.359,2.127,2.127,0,0,0,1.177,1.162A6.39,6.39,0,0,0,365.468,27.527Z" transform="translate(-167.18 -4.629)"/>
      <g id="Group" transform="translate(0 0)">
        <path id="linha" class="cls-2" d="M3.5,20.024v1.49a13.073,13.073,0,0,0-1.933-.092c0,1.33,0,2.289,0,6.519l-.08,11.224a66.967,66.967,0,0,1,15.228,2.165A65.307,65.307,0,0,1,31.8,39.166V21.423a13.449,13.449,0,0,0-2.337.145v-1.5a13.772,13.772,0,0,1,3.815-.006V40.629a63.612,63.612,0,0,0-16.559,2.233A65.192,65.192,0,0,0,0,40.629l.091-12.7V20.066A13.507,13.507,0,0,1,3.5,20.024Z" transform="translate(0 -15.739)"/>
        <path id="livro" class="cls-1" d="M30.293,23.7V21.288a6.689,6.689,0,0,0,5.791-6.639.861.861,0,0,0-1.722,0,4.934,4.934,0,1,1-9.867,0,.843.843,0,0,0-.85-.859.86.86,0,0,0-.861.859,6.687,6.687,0,0,0,5.791,6.64V23.7a34.046,34.046,0,0,0-12.142-2.324V3.18c-.071-2.186-.071-2.542,0-2.549C20.742-.328,25.069-.4,29.413,1.891,33.758-.4,38.085-.328,42.394.631c.071.007.071.363,0,2.549V21.374A33.644,33.644,0,0,0,30.293,23.7Zm-.859-5.466a3.693,3.693,0,0,0,3.695-3.678V9.567a3.695,3.695,0,0,0-7.389,0v4.989A3.69,3.69,0,0,0,29.433,18.233Z" transform="translate(-12.931 0)"/>
      </g>
    </g>
  </g>
</svg>
